HIERARCHY
ROOT hip
{
	OFFSET 0.000000 0.000000 0.000000 
	CHANNELS 6 Xposition Yposition Zposition Xrotation Zrotation Yrotation
	JOINT abdomen
	{
		OFFSET 0.000000 3.402643 0.000000 
		CHANNELS 3 Xrotation Zrotation Yrotation
		JOINT chest
		{
			OFFSET 0.000000 8.438565 -0.680529 
			CHANNELS 3 Xrotation Zrotation Yrotation
			JOINT neck
			{
				OFFSET 0.000000 10.207942 -0.272212 
				CHANNELS 3 Xrotation Zrotation Yrotation
				JOINT head
				{
					OFFSET 0.000000 3.130431 0.000000 
					CHANNELS 3 Xrotation Zrotation Yrotation
					End Site
					{
						OFFSET 0.000000 3.130435 0.000000 
					}
				}
			}
			JOINT lCollar
			{
				OFFSET 3.470700 6.669187 -0.816635 
				CHANNELS 3 Yrotation Zrotation Xrotation
				JOINT lShldr
				{
					OFFSET 3.198488 0.000000 0.000000 
					CHANNELS 3 Zrotation Yrotation Xrotation
					JOINT lForeArm
					{
						OFFSET 10.139888 0.000000 0.000000 
						CHANNELS 3 Yrotation Zrotation Xrotation
						JOINT lHand
						{
							OFFSET 8.370511 0.000000 0.000000 
							CHANNELS 3 Zrotation Yrotation Xrotation
							End Site
							{
								OFFSET 4.083176 0.000000 0.000000 
							}
						}
					}
				}
			}
			JOINT rCollar
			{
				OFFSET -3.470700 6.669187 -0.816635 
				CHANNELS 3 Yrotation Zrotation Xrotation
				JOINT rShldr
				{
					OFFSET -3.198488 0.000000 0.000000 
					CHANNELS 3 Zrotation Yrotation Xrotation
					JOINT rForeArm
					{
						OFFSET -10.139888 0.000000 0.000000 
						CHANNELS 3 Yrotation Zrotation Xrotation
						JOINT rHand
						{
							OFFSET -8.370511 0.000000 0.000000 
							CHANNELS 3 Zrotation Yrotation Xrotation
							End Site
							{
								OFFSET -4.083176 0.000000 0.000000 
							}
						}
					}
				}
			}
		}
	}
	JOINT lThigh
	{
		OFFSET 5.308129 -1.633274 1.361059 
		CHANNELS 3 Xrotation Zrotation Yrotation
		JOINT lShin
		{
			OFFSET -2.041588 -20.007561 0.000000 
			CHANNELS 3 Xrotation Zrotation Yrotation
			JOINT lFoot
			{
				OFFSET 0.000000 -19.190928 -1.224953 
				CHANNELS 3 Xrotation Yrotation Zrotation
				End Site
				{
					OFFSET 0.000000 -2.449906 4.627600 
				}
			}
		}
	}
	JOINT rThigh
	{
		OFFSET -5.308129 -1.633274 1.361059 
		CHANNELS 3 Xrotation Zrotation Yrotation
		JOINT rShin
		{
			OFFSET 2.041588 -20.007561 0.000000 
			CHANNELS 3 Xrotation Zrotation Yrotation
			JOINT rFoot
			{
				OFFSET 0.000000 -19.190928 -1.224953 
				CHANNELS 3 Xrotation Yrotation Zrotation
				End Site
				{
					OFFSET 0.000000 -2.449906 4.627600 
				}
			}
		}
	}
}
MOTION
Frames: 10
Frame Time: 0.016667
0.536918 43.793777 -35.990765 5.674180 -0.641374 7.445940 -17.236000 0.691726 -0.959635 19.029900 3.758440 -0.519807 8.700450 3.255040 -8.256000 8.838040 5.984550 -4.025450 2.000000 -2.000000 0.000000 -86.005096 -6.476110 171.156998 42.217201 -0.316102 0.091923 0.049795 -0.040363 -151.492004 -2.000000 2.000000 0.000000 87.185501 -1.841400 169.957001 -29.326500 0.334044 0.066964 -0.075115 0.058253 -158.210999 2.414659 -5.742645 5.142943 19.577961 3.689485 1.349256 -22.227386 -3.257985 -2.106076 -34.124741 3.336731 0.358883 19.732754 -2.331703 -1.741179 -9.026816 -12.234131 -2.245788 
0.494340 43.704590 -34.850193 6.036270 -1.097400 8.077160 -16.978701 0.725189 -1.535950 19.087999 4.139270 -0.818648 7.762770 2.640250 -8.508780 8.453250 5.803560 -4.139050 2.000000 -2.000000 0.000000 94.277397 -172.481995 -7.737310 42.256302 -0.316039 0.091992 0.050953 -0.044582 -153.054993 -2.000000 2.000000 0.000000 86.863602 -2.214350 170.746994 -30.127300 0.333096 0.068624 -0.075225 0.058534 -158.317993 3.146073 -4.942050 5.316595 19.545639 3.946303 1.291779 -22.009598 -4.570314 -2.718784 -34.013561 3.950036 0.186431 18.583561 -2.225336 -1.707733 -7.723232 -12.620439 -2.087525 
0.516099 43.689045 -33.653008 6.857460 -1.376800 8.359650 -16.727699 0.690044 -2.211670 19.234400 4.383600 -1.165240 6.995830 2.539110 -8.388040 8.326500 5.892440 -4.047670 2.000000 -2.000000 0.000000 94.433403 -171.386993 -8.065480 42.187901 -0.316149 0.091871 0.050923 -0.044477 -153.014999 -2.000000 2.000000 0.000000 85.887299 -1.786790 171.645996 -29.873400 0.333399 0.068099 -0.076172 0.060894 -159.225998 4.320525 -4.552485 4.941126 17.465239 4.021174 1.144222 -20.162943 -4.975116 -2.704037 -34.479774 4.347222 0.315183 19.532318 -2.136853 -1.822273 -4.625870 -11.655663 -1.386853 
0.514366 43.742374 -32.300789 7.141400 -1.579450 8.913270 -16.460400 0.670908 -2.483550 19.155800 4.520140 -1.321020 5.988790 2.547300 -8.745890 8.042170 5.934110 -4.191210 2.000000 -2.000000 0.000000 94.774803 -171.018005 -7.195470 42.061001 -0.316352 0.091646 0.050855 -0.044241 -152.927994 -2.000000 2.000000 0.000000 85.837898 -1.734460 170.162003 -29.219101 0.334169 0.066741 -0.075831 0.060058 -158.904007 7.007710 -4.314558 3.892037 14.005221 4.128357 0.893361 -16.896502 -4.643767 -2.222128 -34.599289 4.532020 0.006636 21.504696 -2.118090 -1.983710 -2.826452 -11.129583 -1.008592 
0.458232 43.899151 -30.715813 7.128420 -2.916770 9.469350 -16.135900 1.158090 -2.929820 19.390499 4.793930 -1.474090 4.981090 2.279550 -8.992080 7.806810 5.965480 -4.291650 2.000000 -2.000000 0.000000 94.608704 -171.263000 -6.746830 41.816799 -0.316741 0.091213 0.050381 -0.042556 -152.302994 -2.000000 2.000000 0.000000 85.378502 -1.507470 169.147003 -28.115499 0.335432 0.064430 -0.074547 0.056773 -157.643997 7.389613 -2.488115 3.035287 15.518675 4.598402 0.936050 -14.900599 -4.751114 -2.231718 -33.519333 5.785130 -0.945387 21.794121 -1.994786 -2.053510 -1.147121 -11.694028 -0.799025 
0.423558 44.020329 -29.109148 7.132500 -4.602930 9.238620 -16.180401 1.581690 -2.881810 19.116600 4.529830 -1.392700 4.263940 2.140230 -9.568220 7.680200 6.083550 -4.561080 2.000000 -2.000000 0.000000 94.901802 -172.016998 -5.957590 40.977001 -0.318066 0.089710 0.050216 -0.041949 -152.078003 -2.000000 2.000000 0.000000 85.387001 -1.277390 166.804001 -26.162399 0.337558 0.060283 -0.072805 0.051936 -155.807999 5.798833 -0.081129 1.983571 21.048349 4.361482 1.336248 -12.772139 -5.022525 -1.966449 -31.552786 7.764513 -2.614400 19.898369 -1.797051 -2.014619 2.187835 -10.900518 -0.267625 
0.405664 44.284660 -27.450701 7.034450 -5.495690 9.058630 -16.204100 1.759060 -2.741840 18.891800 4.295070 -1.306010 3.074130 1.554760 -9.874400 7.416030 6.202800 -4.689550 2.000000 -2.000000 0.000000 95.370499 -172.654007 -4.992290 39.658600 -0.320102 0.087312 0.049712 -0.040045 -151.375000 -2.000000 2.000000 0.000000 85.229599 -0.852771 164.772995 -24.004200 0.339741 0.055619 -0.071510 0.057752 -154.324005 4.002526 1.710497 1.384253 26.676275 3.973707 1.737145 -8.054138 -5.931235 -1.475782 -29.504311 9.150469 -2.444073 19.096504 -1.668093 -2.023669 1.846575 -10.915631 -0.472126 
0.494601 44.663883 -25.839769 7.143060 -5.552550 9.578190 -16.356501 1.355750 -2.681460 18.609301 3.650240 -1.315180 2.449040 1.440490 -10.613100 7.160800 6.224390 -5.057720 2.000000 -2.000000 0.000000 95.849197 -173.268997 -5.110940 38.799198 -0.321398 0.085723 0.048563 -0.035287 -149.626999 -2.000000 2.000000 0.000000 85.422997 -0.387602 162.069000 -22.265900 0.341370 0.051805 -0.060485 0.043767 -152.751999 0.637791 2.556279 0.344648 34.369831 3.535054 2.280545 -1.290667 -6.758867 -0.629430 -27.644741 8.879978 -4.494659 18.835674 -1.633530 -2.044369 0.135693 -9.028004 -0.777437 
0.500716 44.958420 -24.267147 6.236810 -7.611470 9.668280 -16.187599 1.683880 -2.414980 18.513300 2.761920 -1.114010 1.537300 2.329030 -11.409100 6.919110 6.723700 -5.420520 2.000000 -2.000000 0.000000 96.318199 -173.854004 -5.424830 38.603901 -0.321690 0.085360 0.047879 -0.032106 -148.464996 -2.000000 2.000000 0.000000 85.140099 -0.085579 162.382996 -22.304899 0.341335 0.051891 -0.060017 0.042081 -152.126999 -3.753174 5.896949 -0.566605 44.499065 3.058452 2.844267 6.344792 -7.907634 0.547267 -23.796335 11.215522 -6.380403 15.522464 -1.344707 -1.916192 0.569414 -7.759765 -0.921950 
0.495841 45.124050 -22.735529 5.164730 -9.882390 9.218460 -16.052601 2.164430 -1.797390 18.416800 1.922490 -0.726077 0.329483 2.406610 -12.639200 6.467770 6.863670 -6.014210 2.000000 -2.000000 0.000000 96.679802 -174.507004 -6.071840 38.672298 -0.321588 0.085487 0.047564 -0.030524 -147.889008 -2.000000 2.000000 0.000000 84.389503 -0.168483 164.472000 -23.662399 0.340070 0.054873 -0.060803 0.044871 -153.162003 -7.388216 9.522777 -1.325788 52.654774 2.444676 3.311371 13.552704 -9.837583 2.172547 -19.670067 14.265936 -6.671080 11.795023 -0.976872 -1.809475 1.719197 -7.324829 -0.994029 
